<svg width="128" height="129" viewBox="0 0 128 129" fill="none" xmlns="http://www.w3.org/2000/svg">
<rect width="128" height="129" fill="#E5E5E5"/>
<g clip-path="url(#clip0)">
<rect width="1440" height="4250" transform="translate(-240 -2112)" fill="white"/>
<rect x="-118" y="-74.7271" width="365" height="402" rx="8" fill="#FCFCFC"/>
<g filter="url(#filter0_ddd)">
<circle cx="64" cy="48.2729" r="40" fill="#48B08D"/>
</g>
<path d="M84.0033 35.7694C84.0006 35.7694 83.9979 35.7694 83.9952 35.7694H81.2476V34.8292C81.2624 34.4571 81.0217 34.1226 80.6641 34.0187C78.7566 33.5188 76.7923 33.2682 74.8203 33.273C71.5783 33.273 67.1611 34.0025 63.8948 37.3255C60.6528 33.9701 56.2031 33.273 52.9692 33.273C50.9972 33.2682 49.033 33.5188 47.1255 34.0187C46.7678 34.1226 46.5271 34.4571 46.5419 34.8292V35.7613H43.8105C43.3629 35.7613 43 36.1242 43 36.5718V62.4592C43 62.9068 43.3629 63.2697 43.8105 63.2697C43.9497 63.2693 44.0865 63.2331 44.2076 63.1644C44.2887 63.1238 52.3937 58.6904 63.7083 61.5434H63.8299H63.9029C63.9675 61.5512 64.0328 61.5512 64.0974 61.5434C75.4444 58.6661 83.5495 63.0914 83.5981 63.1644C83.8488 63.3091 84.1578 63.3091 84.4086 63.1644C84.6578 63.0205 84.8121 62.7552 84.8138 62.4673V36.5799C84.8138 36.1323 84.451 35.7694 84.0033 35.7694ZM44.621 61.1705V37.3904H46.5581V57.7178C46.553 58.1654 46.9118 58.5323 47.3594 58.5374C47.4032 58.5379 47.4469 58.5349 47.4902 58.5283C49.1669 58.2723 50.8598 58.1368 52.5558 58.123C54.9053 58.0823 57.2449 58.4357 59.4775 59.1686C54.4357 58.5589 49.3216 59.248 44.621 61.1705ZM52.5558 56.5101C51.0816 56.5135 49.6091 56.6082 48.1467 56.7938V35.4695C49.7247 35.1179 51.3362 34.9385 52.953 34.9345C55.9843 34.9345 60.1665 35.6316 63.0681 38.906L63.0924 59.0956C61.4065 57.9934 58.1159 56.5101 52.5558 56.5101ZM64.7134 38.906C67.615 35.664 71.7972 34.9345 74.8285 34.9345C76.4451 34.9393 78.0566 35.1186 79.6347 35.4695V56.7938C78.1805 56.6065 76.7161 56.509 75.2499 56.502C69.7223 56.502 66.4235 57.9853 64.7134 59.0875V38.906ZM83.1847 61.1705C78.4741 59.2427 73.3483 58.5535 68.2958 59.1686C70.539 58.4331 72.8897 58.0796 75.2499 58.123C76.9566 58.1326 78.6604 58.2653 80.348 58.5202C80.7905 58.5874 81.2038 58.283 81.2709 57.8405C81.2775 57.7972 81.2806 57.7535 81.2801 57.7097V37.3904H83.2172L83.1847 61.1705Z" fill="white"/>
</g>
<defs>
<filter id="filter0_ddd" x="0" y="0.272949" width="128" height="128" filterUnits="userSpaceOnUse" color-interpolation-filters="sRGB">
<feFlood flood-opacity="0" result="BackgroundImageFix"/>
<feColorMatrix in="SourceAlpha" type="matrix" values="0 0 0 0 0 0 0 0 0 0 0 0 0 0 0 0 0 0 127 0"/>
<feOffset/>
<feGaussianBlur stdDeviation="0.5"/>
<feColorMatrix type="matrix" values="0 0 0 0 0 0 0 0 0 0 0 0 0 0 0 0 0 0 0.04 0"/>
<feBlend mode="normal" in2="BackgroundImageFix" result="effect1_dropShadow"/>
<feColorMatrix in="SourceAlpha" type="matrix" values="0 0 0 0 0 0 0 0 0 0 0 0 0 0 0 0 0 0 127 0"/>
<feOffset dy="2"/>
<feGaussianBlur stdDeviation="3"/>
<feColorMatrix type="matrix" values="0 0 0 0 0.282353 0 0 0 0 0.690196 0 0 0 0 0.552941 0 0 0 0.12 0"/>
<feBlend mode="normal" in2="effect1_dropShadow" result="effect2_dropShadow"/>
<feColorMatrix in="SourceAlpha" type="matrix" values="0 0 0 0 0 0 0 0 0 0 0 0 0 0 0 0 0 0 127 0"/>
<feOffset dy="16"/>
<feGaussianBlur stdDeviation="12"/>
<feColorMatrix type="matrix" values="0 0 0 0 0.282353 0 0 0 0 0.690196 0 0 0 0 0.552941 0 0 0 0.2 0"/>
<feBlend mode="normal" in2="effect2_dropShadow" result="effect3_dropShadow"/>
<feBlend mode="normal" in="SourceGraphic" in2="effect3_dropShadow" result="shape"/>
</filter>
<clipPath id="clip0">
<rect width="1440" height="4250" fill="white" transform="translate(-240 -2112)"/>
</clipPath>
</defs>
</svg>
