<svg width="27" height="20" viewBox="0 0 27 20" fill="none" xmlns="http://www.w3.org/2000/svg">
<path d="M24.1666 0H2.50001C1.12142 0 0 1.12142 0 2.50001V17.5C0 18.8786 1.12142 20 2.50001 20H24.1666C25.5452 20 26.6666 18.8786 26.6666 17.5V2.50001C26.6666 1.12142 25.5452 0 24.1666 0ZM24.1666 1.66666C24.2798 1.66666 24.3875 1.69015 24.486 1.73117L13.3333 11.3973L2.18055 1.73117C2.27902 1.6902 2.38674 1.66666 2.49996 1.66666H24.1666ZM24.1666 18.3333H2.50001C2.04022 18.3333 1.66666 17.9598 1.66666 17.4999V3.49201L12.7872 13.1299C12.9443 13.2657 13.1388 13.3333 13.3333 13.3333C13.5278 13.3333 13.7223 13.2658 13.8794 13.1299L25 3.49201V17.5C24.9999 17.9598 24.6264 18.3333 24.1666 18.3333Z" fill="#999999"/>
</svg>
