<svg width="30" height="31" viewBox="0 0 30 31" fill="none" xmlns="http://www.w3.org/2000/svg">
<circle cx="15" cy="15.2729" r="15" fill="white"/>
<path d="M14.4388 14.7857H12.8275C12.7417 14.6372 12.6186 14.5137 12.4704 14.4275C12.3222 14.3414 12.154 14.2955 11.9825 14.2944C11.7219 14.2944 11.472 14.3979 11.2878 14.5822C11.1035 14.7665 11 15.0164 11 15.2769C11 15.5375 11.1035 15.7874 11.2878 15.9717C11.472 16.1559 11.7219 16.2594 11.9825 16.2594C12.154 16.2584 12.3222 16.2125 12.4704 16.1263C12.6186 16.0402 12.7417 15.9167 12.8275 15.7682H14.4388C14.5691 15.7682 14.694 15.7164 14.7861 15.6243C14.8783 15.5322 14.93 15.4072 14.93 15.2769C14.93 15.1467 14.8783 15.0217 14.7861 14.9296C14.694 14.8374 14.5691 14.7857 14.4388 14.7857Z" fill="#1F1F1F"/>
<path d="M15.6669 17.404C16.0402 17.1884 16.3503 16.8783 16.5659 16.5049C16.7814 16.1315 16.8949 15.708 16.8949 15.2768C16.8949 14.8457 16.7814 14.4221 16.5659 14.0488C16.3503 13.6754 16.0402 13.3653 15.6669 13.1497C15.5546 13.091 15.424 13.0779 15.3023 13.1132C15.1806 13.1485 15.0773 13.2295 15.0139 13.3392C14.9504 13.4489 14.9319 13.5788 14.962 13.7019C14.9922 13.8249 15.0687 13.9316 15.1756 13.9996C15.4001 14.1288 15.5866 14.3149 15.7162 14.5391C15.8459 14.7634 15.9141 15.0178 15.9141 15.2768C15.9141 15.5359 15.8459 15.7903 15.7162 16.0145C15.5866 16.2388 15.4001 16.4249 15.1756 16.5541C15.1177 16.5866 15.067 16.6304 15.0266 16.683C14.9861 16.7356 14.9567 16.7959 14.9402 16.8602C14.9237 16.9245 14.9204 16.9914 14.9304 17.057C14.9405 17.1226 14.9637 17.1855 14.9988 17.2419C15.0416 17.3161 15.1032 17.3778 15.1773 17.4209C15.2514 17.464 15.3355 17.487 15.4212 17.4875C15.5091 17.4822 15.594 17.4533 15.6669 17.404Z" fill="#1F1F1F"/>
<path d="M16.1238 18.8289C16.7963 18.5104 17.3645 18.0075 17.7624 17.3788C18.1603 16.75 18.3715 16.0212 18.3715 15.2771C18.3715 14.533 18.1603 13.8043 17.7624 13.1755C17.3645 12.5468 16.7963 12.0439 16.1238 11.7254C16.0059 11.6693 15.8705 11.6625 15.7476 11.7062C15.6246 11.75 15.524 11.8408 15.468 11.9587C15.4119 12.0766 15.4051 12.212 15.4488 12.335C15.4926 12.4579 15.5834 12.5585 15.7013 12.6145C16.205 12.8537 16.6305 13.2308 16.9284 13.7021C17.2264 14.1734 17.3845 14.7196 17.3845 15.2771C17.3845 15.8347 17.2264 16.3808 16.9284 16.8521C16.6305 17.3234 16.205 17.7006 15.7013 17.9397C15.5986 17.9865 15.5151 18.0672 15.4649 18.1683C15.4147 18.2693 15.4008 18.3846 15.4256 18.4947C15.4504 18.6048 15.5123 18.703 15.601 18.7728C15.6897 18.8426 15.7997 18.8798 15.9126 18.878C15.9856 18.8764 16.0575 18.8596 16.1238 18.8289Z" fill="#1F1F1F"/>
<path d="M16.6003 10.3251C16.5407 10.2952 16.4756 10.2777 16.4091 10.2738C16.3425 10.2699 16.2758 10.2795 16.2131 10.3022C16.1504 10.3249 16.0929 10.3601 16.0442 10.4057C15.9956 10.4513 15.9567 10.5063 15.93 10.5674C15.9033 10.6285 15.8893 10.6944 15.8889 10.7611C15.8884 10.8278 15.9016 10.8939 15.9276 10.9553C15.9535 11.0168 15.9917 11.0723 16.0398 11.1185C16.0879 11.1647 16.1449 11.2006 16.2073 11.2241C16.9962 11.568 17.6675 12.1347 18.139 12.8546C18.6105 13.5745 18.8616 14.4163 18.8616 15.2769C18.8616 16.1375 18.6105 16.9793 18.139 17.6992C17.6675 18.4191 16.9962 18.9858 16.2073 19.3297C16.1478 19.3554 16.094 19.3925 16.0489 19.4391C16.0039 19.4856 15.9684 19.5406 15.9447 19.6008C15.9209 19.6611 15.9094 19.7255 15.9106 19.7902C15.9118 19.855 15.9258 19.9189 15.9519 19.9782C15.9902 20.0661 16.0534 20.1408 16.1338 20.1932C16.2141 20.2456 16.3079 20.2733 16.4038 20.2729C16.4717 20.2719 16.5386 20.2569 16.6003 20.2287C17.5635 19.8079 18.3831 19.1153 18.9586 18.2358C19.5342 17.3563 19.8407 16.328 19.8407 15.2769C19.8407 14.2258 19.5342 13.1975 18.9586 12.318C18.3831 11.4385 17.5635 10.7459 16.6003 10.3251Z" fill="#1F1F1F"/>
</svg>
