<svg width="30" height="31" viewBox="0 0 30 31" fill="none" xmlns="http://www.w3.org/2000/svg">
<circle cx="15" cy="15.2729" r="15" fill="white"/>
<path d="M13.3 17.7168V12.8416L17.5561 15.2792L13.3 17.7168ZM14.3 14.5667V15.9916L15.544 15.2792L14.3 14.5667ZM14.9 20.2729C13.2714 20.2729 11.8421 20.1665 10.9299 20.0772C9.775 19.9642 8.85493 19.0834 8.69235 17.9355C8.56472 17.0341 8.5 16.1383 8.5 15.2729C8.5 14.4076 8.56472 13.5118 8.69235 12.6104C8.85493 11.4624 9.775 10.5817 10.9299 10.4687C11.8421 10.3794 13.2714 10.2729 14.9 10.2729C16.5286 10.2729 17.9579 10.3794 18.8702 10.4687C20.025 10.5817 20.9451 11.4624 21.1077 12.6104C21.2353 13.5118 21.3 14.4076 21.3 15.2729C21.3 16.1383 21.2353 17.0341 21.1077 17.9355C20.9451 19.0834 20.025 19.9642 18.8702 20.0772C17.9579 20.1665 16.5286 20.2729 14.9 20.2729ZM14.9 11.2729C13.3118 11.2729 11.9174 11.3768 11.0273 11.464C10.3331 11.5319 9.78015 12.061 9.6825 12.7506C9.5614 13.6057 9.5 14.4543 9.5 15.2729C9.5 16.0916 9.5614 16.9402 9.6825 17.7953C9.78015 18.4849 10.3331 19.014 11.0273 19.0819C11.9174 19.1691 13.3118 19.2729 14.9 19.2729C16.4883 19.2729 17.8827 19.1691 18.7727 19.0819C19.4669 19.014 20.0199 18.4849 20.1175 17.7953C20.2386 16.9402 20.3 16.0916 20.3 15.2729C20.3 14.4543 20.2386 13.6057 20.1175 12.7506C20.0199 12.061 19.4669 11.5319 18.7727 11.4639C17.8827 11.3768 16.4883 11.2729 14.9 11.2729Z" fill="#1F1F1F"/>
</svg>
