<svg width="30" height="31" viewBox="0 0 30 31" fill="none" xmlns="http://www.w3.org/2000/svg">
<circle cx="15" cy="15.2729" r="15" fill="white"/>
<path d="M19.9727 13.213C19.9493 12.6816 19.8633 12.3164 19.7402 11.9998C19.6133 11.6638 19.4179 11.363 19.162 11.113C18.9119 10.859 18.6091 10.6617 18.277 10.5367C17.9587 10.4136 17.5953 10.3277 17.0639 10.3042C16.5286 10.2788 16.3587 10.2729 15.001 10.2729C13.6433 10.2729 13.4734 10.2788 12.94 10.3023C12.4087 10.3257 12.0434 10.4117 11.727 10.5347C11.3909 10.6617 11.0901 10.857 10.84 11.113C10.5861 11.363 10.3888 11.6658 10.2637 11.9979C10.1406 12.3164 10.0547 12.6797 10.0313 13.211C10.0059 13.7463 10 13.9162 10 15.2739C10 16.6316 10.0059 16.8016 10.0293 17.3349C10.0527 17.8662 10.1387 18.2315 10.2618 18.5481C10.3888 18.884 10.5861 19.1849 10.84 19.4349C11.0901 19.6889 11.3929 19.8862 11.725 20.0112C12.0434 20.1343 12.4067 20.2202 12.9381 20.2436C13.4714 20.2671 13.6414 20.2729 14.9991 20.2729C16.3568 20.2729 16.5267 20.2671 17.06 20.2436C17.5914 20.2202 17.9567 20.1343 18.2731 20.0112C18.9452 19.7514 19.4765 19.22 19.7364 18.5481C19.8594 18.2296 19.9454 17.8662 19.9688 17.3349C19.9922 16.8016 19.9981 16.6316 19.9981 15.2739C19.9981 13.9162 19.9961 13.7463 19.9727 13.213ZM19.0722 17.2958C19.0506 17.7842 18.9686 18.0479 18.9002 18.2237C18.7322 18.6594 18.3864 19.0051 17.9508 19.1732C17.775 19.2416 17.5093 19.3236 17.0229 19.345C16.4954 19.3685 16.3372 19.3743 15.003 19.3743C13.6687 19.3743 13.5085 19.3685 12.983 19.345C12.4946 19.3236 12.2309 19.2416 12.0551 19.1732C11.8383 19.0931 11.641 18.9661 11.4808 18.8C11.3147 18.6379 11.1878 18.4425 11.1076 18.2257C11.0393 18.0499 10.9572 17.7842 10.9358 17.2978C10.9123 16.7704 10.9065 16.6121 10.9065 15.2778C10.9065 13.9436 10.9123 13.7834 10.9358 13.2579C10.9572 12.7696 11.0393 12.5058 11.1076 12.33C11.1878 12.1131 11.3147 11.9159 11.4828 11.7556C11.6448 11.5896 11.8402 11.4626 12.0571 11.3826C12.2329 11.3142 12.4986 11.2322 12.985 11.2106C13.5124 11.1872 13.6707 11.1813 15.0049 11.1813C16.3411 11.1813 16.4993 11.1872 17.0249 11.2106C17.5132 11.2322 17.777 11.3142 17.9528 11.3826C18.1696 11.4626 18.3669 11.5896 18.5271 11.7556C18.6931 11.9178 18.8201 12.1131 18.9002 12.33C18.9686 12.5058 19.0506 12.7715 19.0722 13.2579C19.0956 13.7854 19.1015 13.9436 19.1015 15.2778C19.1015 16.6121 19.0956 16.7684 19.0722 17.2958Z" fill="#1F1F1F"/>
<path d="M15.001 12.7051C13.5828 12.7051 12.4321 13.8557 12.4321 15.2739C12.4321 16.6922 13.5828 17.8428 15.001 17.8428C16.4193 17.8428 17.5699 16.6922 17.5699 15.2739C17.5699 13.8557 16.4193 12.7051 15.001 12.7051ZM15.001 16.9403C14.0809 16.9403 13.3346 16.1941 13.3346 15.2739C13.3346 14.3538 14.0809 13.6076 15.001 13.6076C15.9211 13.6076 16.6674 14.3538 16.6674 15.2739C16.6674 16.1941 15.9211 16.9403 15.001 16.9403Z" fill="#1F1F1F"/>
<path d="M18.2712 12.6036C18.2712 12.9348 18.0027 13.2033 17.6714 13.2033C17.3402 13.2033 17.0717 12.9348 17.0717 12.6036C17.0717 12.2724 17.3402 12.0039 17.6714 12.0039C18.0027 12.0039 18.2712 12.2724 18.2712 12.6036Z" fill="#1F1F1F"/>
</svg>
