<svg width="30" height="31" viewBox="0 0 30 31" fill="none" xmlns="http://www.w3.org/2000/svg">
<circle cx="15" cy="15.2729" r="15" fill="white"/>
<path d="M10.1538 20.2729H12.7642V13.4087H10.1538V20.2729ZM10.7445 13.9994H12.1735V19.6822H10.7445V13.9994Z" fill="#1F1F1F"/>
<path d="M11.459 10.2729C10.6545 10.2729 10 10.9275 10 11.732C10 12.5365 10.6545 13.191 11.459 13.191C12.2635 13.191 12.9181 12.5365 12.9181 11.732C12.9181 10.9274 12.2635 10.2729 11.459 10.2729ZM10.5907 11.732C10.5907 11.2532 10.9802 10.8637 11.459 10.8637C11.9378 10.8637 12.3273 11.2532 12.3273 11.732C12.3273 12.2108 11.9378 12.6003 11.459 12.6003C10.9802 12.6003 10.5907 12.2107 10.5907 11.732Z" fill="#1F1F1F"/>
<path d="M20.075 15.5644C19.9821 14.2283 18.8676 13.1987 17.486 13.1987C16.868 13.1987 16.2846 13.4136 15.8249 13.7948V13.4089H13.3237V20.2731H15.934V16.5189C15.934 16.0958 16.2782 15.7516 16.7013 15.7516C17.1244 15.7516 17.4686 16.0958 17.4686 16.5191L17.4712 20.2731H20.0813V15.5707L20.075 15.5644ZM15.3433 19.6825H13.9144V13.9996H15.2342V14.8433L15.7068 14.846L15.7947 14.7097C16.1658 14.1334 16.7981 13.7895 17.486 13.7895C18.5854 13.7895 19.4657 14.6283 19.49 15.6991L19.4906 19.6825H18.0615L18.0593 16.5189C18.0593 15.7701 17.4501 15.1609 16.7013 15.1609C15.9525 15.1609 15.3433 15.7701 15.3433 16.5189V19.6825Z" fill="#1F1F1F"/>
</svg>
