<svg width="128" height="128" viewBox="0 0 128 128" fill="none" xmlns="http://www.w3.org/2000/svg">
<g filter="url(#filter0_ddd)">
<circle cx="64" cy="48" r="40" fill="#00BC59"/>
</g>
<path d="M71.186 54.8747C70.7273 54.4181 69.9853 54.4199 69.5287 54.8786L65.4375 58.9897V34.1719C65.4375 33.5246 64.9128 33 64.2656 33C63.6184 33 63.0937 33.5246 63.0937 34.1719V58.9897L59.0025 54.8785C58.5459 54.4198 57.804 54.4181 57.3452 54.8746C56.8864 55.3312 56.8847 56.0732 57.3412 56.5319L63.435 62.6552C63.4353 62.6556 63.4358 62.6559 63.4361 62.6563C63.8927 63.1138 64.637 63.1153 65.0951 62.6563C65.0955 62.6559 65.0959 62.6556 65.0962 62.6553L71.19 56.532C71.6464 56.0733 71.6449 55.3313 71.186 54.8747Z" fill="white"/>
<defs>
<filter id="filter0_ddd" x="0" y="0" width="128" height="128" filterUnits="userSpaceOnUse" color-interpolation-filters="sRGB">
<feFlood flood-opacity="0" result="BackgroundImageFix"/>
<feColorMatrix in="SourceAlpha" type="matrix" values="0 0 0 0 0 0 0 0 0 0 0 0 0 0 0 0 0 0 127 0"/>
<feOffset/>
<feGaussianBlur stdDeviation="0.5"/>
<feColorMatrix type="matrix" values="0 0 0 0 0 0 0 0 0 0 0 0 0 0 0 0 0 0 0.04 0"/>
<feBlend mode="normal" in2="BackgroundImageFix" result="effect1_dropShadow"/>
<feColorMatrix in="SourceAlpha" type="matrix" values="0 0 0 0 0 0 0 0 0 0 0 0 0 0 0 0 0 0 127 0"/>
<feOffset dy="2"/>
<feGaussianBlur stdDeviation="3"/>
<feColorMatrix type="matrix" values="0 0 0 0 0 0 0 0 0 0.584314 0 0 0 0 0.27451 0 0 0 0.12 0"/>
<feBlend mode="normal" in2="effect1_dropShadow" result="effect2_dropShadow"/>
<feColorMatrix in="SourceAlpha" type="matrix" values="0 0 0 0 0 0 0 0 0 0 0 0 0 0 0 0 0 0 127 0"/>
<feOffset dy="16"/>
<feGaussianBlur stdDeviation="12"/>
<feColorMatrix type="matrix" values="0 0 0 0 0 0 0 0 0 0.584314 0 0 0 0 0.27451 0 0 0 0.2 0"/>
<feBlend mode="normal" in2="effect2_dropShadow" result="effect3_dropShadow"/>
<feBlend mode="normal" in="SourceGraphic" in2="effect3_dropShadow" result="shape"/>
</filter>
</defs>
</svg>
