<svg width="30" height="31" viewBox="0 0 30 31" fill="none" xmlns="http://www.w3.org/2000/svg">
<circle cx="15" cy="15.2729" r="15" fill="white"/>
<path d="M21.2181 11.6085C20.4495 11.6439 20.4663 11.641 20.3794 11.6483L20.8346 10.3484C20.8346 10.3484 19.4138 10.871 19.0536 10.9645C18.1076 10.1143 16.7016 10.0767 15.6963 10.6946C14.8731 11.2006 14.4313 12.0697 14.5786 13.0855C12.9765 12.8632 11.6267 12.1037 10.5609 10.8235L10.2238 10.4186L9.97197 10.8812C9.65363 11.4656 9.54793 12.1339 9.67424 12.7628C9.72606 13.0209 9.81415 13.267 9.93617 13.4974L9.64702 13.3853L9.61271 13.8685C9.57794 14.3593 9.74135 14.9322 10.0499 15.4009C10.1368 15.5329 10.2486 15.6778 10.3904 15.8208L10.241 15.7979L10.4233 16.3515C10.663 17.0789 11.1608 17.6416 11.8068 17.9545C11.1616 18.2282 10.6404 18.4029 9.78377 18.6847L9 18.9424L9.72392 19.3382C9.99993 19.4891 10.9753 19.9931 11.9389 20.1443C14.0811 20.4803 16.4928 20.2067 18.1165 18.7444C19.4841 17.5127 19.9328 15.7607 19.8396 13.9375C19.8255 13.6615 19.9011 13.398 20.0525 13.1958C20.3557 12.791 21.2162 11.6112 21.2181 11.6085ZM19.4801 12.767C19.2287 13.1027 19.1027 13.5314 19.1253 13.974C19.2193 15.8131 18.7189 17.2393 17.6379 18.2129C16.3751 19.3502 14.3382 19.7966 12.0498 19.4376C11.6353 19.3727 11.207 19.2271 10.8525 19.0818C11.5707 18.8347 12.1254 18.6144 13.0211 18.1905L14.2715 17.5986L12.891 17.5103C12.2297 17.468 11.679 17.1475 11.3406 16.6271C11.5203 16.6167 11.6936 16.5876 11.8661 16.5395L13.1828 16.1728L11.8551 15.8477C11.21 15.6897 10.8422 15.3037 10.6473 15.0076C10.5193 14.8131 10.4357 14.6138 10.3856 14.43C10.5187 14.4657 10.6739 14.4912 10.9242 14.516L12.1531 14.6375L11.1794 13.878C10.4779 13.3308 10.1967 12.5087 10.4028 11.7185C12.5923 13.9894 15.163 13.8187 15.4218 13.8787C15.3648 13.3255 15.3633 13.3242 15.3484 13.2715C15.017 12.1001 15.7433 11.5053 16.0709 11.3039C16.7551 10.8834 17.8411 10.82 18.5934 11.5128C18.7559 11.6623 18.9756 11.7212 19.1812 11.6701C19.3658 11.6242 19.5173 11.5756 19.6656 11.5228L19.3568 12.4044L19.7509 12.4047C19.6766 12.5045 19.5874 12.6239 19.4801 12.767Z" fill="#1F1F1F"/>
</svg>
