<svg width="30" height="31" viewBox="0 0 30 31" fill="none" xmlns="http://www.w3.org/2000/svg">
<circle cx="15" cy="15.2729" r="15" fill="white"/>
<path d="M15.5059 20.2729H13.9044C13.637 20.2729 13.4194 20.0554 13.4194 19.7879V16.1758H12.4851C12.2176 16.1758 12 15.9581 12 15.6907V14.143C12 13.8755 12.2176 13.6579 12.4851 13.6579H13.4194V12.8828C13.4194 12.1143 13.6607 11.4605 14.1172 10.9921C14.5757 10.5216 15.2165 10.2729 15.9703 10.2729L17.1916 10.2749C17.4586 10.2754 17.6758 10.493 17.6758 10.76V12.1971C17.6758 12.4646 17.4583 12.6822 17.1909 12.6822L16.3686 12.6825C16.1178 12.6825 16.054 12.7327 16.0403 12.7482C16.0178 12.7737 15.991 12.846 15.991 13.0455V13.6578H17.1291C17.2148 13.6578 17.2978 13.6789 17.3691 13.7188C17.523 13.8047 17.6187 13.9673 17.6187 14.143L17.6181 15.6908C17.6181 15.9581 17.4005 16.1757 17.133 16.1757H15.991V19.7879C15.991 20.0554 15.7733 20.2729 15.5059 20.2729ZM14.0056 19.6867H15.4047V15.9134C15.4047 15.7348 15.55 15.5895 15.7286 15.5895H17.0318L17.0323 14.2441H15.7285C15.55 14.2441 15.4047 14.0989 15.4047 13.9203V13.0455C15.4047 12.8164 15.428 12.556 15.6008 12.3602C15.8097 12.1235 16.1389 12.0962 16.3684 12.0962L17.0896 12.0959V10.861L15.9698 10.8592C14.7584 10.8592 14.0056 11.6346 14.0056 12.8828V13.9203C14.0056 14.0988 13.8604 14.2441 13.6818 14.2441H12.5862V15.5895H13.6818C13.8604 15.5895 14.0056 15.7348 14.0056 15.9134V19.6867ZM17.1904 10.8612H17.1905H17.1904Z" fill="#1F1F1F"/>
</svg>
