<svg width="15" height="20" viewBox="0 0 15 20" fill="none" xmlns="http://www.w3.org/2000/svg">
<path d="M13.125 20H1.875C0.841667 20 0 19.1592 0 18.125V9.375C0 8.34083 0.841667 7.5 1.875 7.5H13.125C14.1583 7.5 15 8.34083 15 9.375V18.125C15 19.1592 14.1583 20 13.125 20ZM1.875 8.75C1.53083 8.75 1.25 9.03 1.25 9.375V18.125C1.25 18.47 1.53083 18.75 1.875 18.75H13.125C13.4692 18.75 13.75 18.47 13.75 18.125V9.375C13.75 9.03 13.4692 8.75 13.125 8.75H1.875Z" fill="#999999"/>
<path d="M11.875 8.75C11.53 8.75 11.25 8.47 11.25 8.125V5C11.25 2.9325 9.5675 1.25 7.5 1.25C5.4325 1.25 3.75 2.9325 3.75 5V8.125C3.75 8.47 3.47 8.75 3.125 8.75C2.78 8.75 2.5 8.47 2.5 8.125V5C2.5 2.2425 4.7425 0 7.5 0C10.2575 0 12.5 2.2425 12.5 5V8.125C12.5 8.47 12.22 8.75 11.875 8.75Z" fill="#999999"/>
<path d="M7.49998 14.1667C6.58081 14.1667 5.83331 13.4192 5.83331 12.5C5.83331 11.5808 6.58081 10.8333 7.49998 10.8333C8.41915 10.8333 9.16665 11.5808 9.16665 12.5C9.16665 13.4192 8.41915 14.1667 7.49998 14.1667ZM7.49998 12.0833C7.27081 12.0833 7.08331 12.27 7.08331 12.5C7.08331 12.73 7.27081 12.9167 7.49998 12.9167C7.72915 12.9167 7.91665 12.73 7.91665 12.5C7.91665 12.27 7.72915 12.0833 7.49998 12.0833Z" fill="#999999"/>
<path d="M7.5 16.6667C7.155 16.6667 6.875 16.3867 6.875 16.0417V13.75C6.875 13.405 7.155 13.125 7.5 13.125C7.845 13.125 8.125 13.405 8.125 13.75V16.0417C8.125 16.3867 7.845 16.6667 7.5 16.6667Z" fill="#999999"/>
</svg>
