<svg width="200" height="201" viewBox="0 0 200 201" fill="none" xmlns="http://www.w3.org/2000/svg">
<path d="M100 0.272949C44.8607 0.272949 0 45.1337 0 100.273C0 155.412 44.8607 200.273 100 200.273C117.584 200.273 134.875 195.646 150.012 186.888L137.5 165.245C126.16 171.806 113.19 175.273 100 175.273C58.6427 175.273 24.9999 141.63 24.9999 100.273C24.9999 58.9157 58.6427 25.2728 100 25.2728C141.357 25.2728 175 58.9157 175 100.273V111.162C175 119.34 169.745 125.273 162.5 125.273C155.609 125.273 150 119.664 150 112.773V62.7729H132.72C123.927 55.0907 112.566 50.2727 100 50.2727C72.4304 50.2727 49.9998 72.7033 49.9998 100.273C49.9998 127.843 72.4304 150.273 100 150.273C113.129 150.273 124.999 145.081 133.93 136.775C140.814 144.956 150.996 150.273 162.5 150.273C183.527 150.273 200 133.092 200 111.162V100.273C200 45.1337 155.139 0.272949 100 0.272949ZM100 125.273C86.212 125.273 75.0001 114.061 75.0001 100.273C75.0001 86.4849 86.2124 75.2731 100 75.2731C113.788 75.2731 125 86.4853 125 100.273C125 114.061 113.788 125.273 100 125.273Z" fill="white" fill-opacity="0.2"/>
</svg>
