<svg width="25" height="29" viewBox="0 0 25 29" fill="none" xmlns="http://www.w3.org/2000/svg">
<path d="M24.5347 11.1183C24.4155 10.8791 24.1055 10.4805 23.364 10.4805C23.3565 10.4805 23.3489 10.4805 23.3414 10.4807C22.3109 10.4912 21.868 10.3866 21.2724 9.74125C20.7362 9.1602 20.3853 8.35945 20.046 7.58499C19.9486 7.36248 19.8477 7.13241 19.7437 6.91007C19.6195 6.64483 19.5012 6.35011 19.3758 6.03805C19.0581 5.24735 18.7296 4.42982 18.2025 3.79405C17.7126 3.20322 17.0892 3.08087 16.5883 2.98248C16.3993 2.94538 16.2209 2.91038 16.0525 2.85494C15.7009 2.73927 15.3419 2.60185 14.9946 2.4689C14.8131 2.39939 14.6317 2.32998 14.45 2.26285C14.3276 2.21763 14.1897 2.21857 14.067 2.2629C14.0447 2.27102 13.9721 2.29078 13.919 2.30525C13.5247 2.41269 13.2537 2.49938 13.0876 2.71691C12.9275 2.92672 12.9193 3.13724 12.9555 3.30465C12.9534 3.30393 12.9513 3.30321 12.9493 3.30244C12.3525 3.08573 11.7396 2.72116 11.1468 2.36863C11.0096 2.28703 10.8703 2.20415 10.7301 2.1225C10.8369 1.81905 10.8334 1.49407 10.7106 1.18532C10.4964 0.646724 9.95512 0.288893 9.33183 0.27382C9.01993 0.265649 8.71654 0.316444 8.42331 0.364976C8.29438 0.386288 8.17264 0.406495 8.05857 0.420078C7.77208 0.454309 7.46311 0.474131 7.13603 0.495166C6.37653 0.544029 5.59113 0.594549 4.88668 0.8329C4.23854 1.05226 3.9881 1.51444 3.78679 1.8858C3.72517 1.99959 3.66693 2.10693 3.60001 2.20421C3.40356 2.48977 3.15008 2.7613 2.8817 3.04879C2.74598 3.19406 2.60563 3.3444 2.47346 3.49679C2.3468 3.6426 2.2123 3.79068 2.08217 3.93385C1.59453 4.47046 1.09033 5.02534 0.747793 5.72345C0.205497 6.82896 -0.0440078 7.90859 0.00634591 8.93239C0.0213085 9.23716 0.280475 9.47132 0.585358 9.45713C0.89013 9.44216 1.12506 9.18294 1.1101 8.87811C1.06907 8.04341 1.28098 7.14577 1.73996 6.21014C2.01348 5.65266 2.44408 5.17878 2.89997 4.67712C3.03425 4.52937 3.17316 4.3766 3.30799 4.22117C3.42714 4.08391 3.55457 3.94743 3.68945 3.80294C3.97363 3.49855 4.26747 3.18379 4.51052 2.83043C4.61062 2.68494 4.68907 2.54018 4.75831 2.41236C4.92825 2.0987 5.013 1.95675 5.24081 1.87967C5.80734 1.68786 6.51881 1.64215 7.20687 1.59787C7.53433 1.57678 7.873 1.55502 8.18943 1.51726C8.32839 1.50069 8.46836 1.47745 8.60374 1.45509C8.85755 1.41302 9.09734 1.37371 9.30505 1.3784C9.52352 1.38364 9.64571 1.49771 9.68386 1.59367C9.73626 1.72535 9.65024 1.84919 9.56885 1.92991C9.4444 2.05337 9.38599 2.22856 9.41128 2.40204C9.43662 2.57546 9.54285 2.72657 9.69739 2.80928C9.98554 2.96349 10.2752 3.1357 10.5818 3.31817C11.2187 3.69704 11.8772 4.08872 12.5721 4.34104C13.2593 4.5906 13.8824 4.38438 14.1225 3.82784C14.1934 3.66353 14.1931 3.51098 14.1663 3.38321C14.1822 3.37885 14.1968 3.37488 14.2096 3.3714C14.2194 3.36869 14.2291 3.36604 14.2387 3.36345C14.359 3.40878 14.4792 3.45477 14.5995 3.50082C14.9588 3.63846 15.3305 3.78074 15.7072 3.90459C15.9408 3.98144 16.1617 4.02484 16.3754 4.0668C16.8466 4.15933 17.1243 4.22498 17.3518 4.49933C17.7687 5.00204 18.0644 5.73802 18.3503 6.44993C18.4816 6.77662 18.6055 7.08531 18.7427 7.37833C18.8409 7.58835 18.9346 7.80208 19.0337 8.0284C19.4096 8.88623 19.7983 9.77338 20.4603 10.4906C21.4137 11.5236 22.2971 11.5978 23.3532 11.5855C23.481 11.5862 23.5347 11.6079 23.5475 11.6149C23.578 11.6851 23.5429 11.9696 23.3305 12.2449C22.9194 12.7777 22.4112 13.2888 21.9198 13.783C21.669 14.0353 21.4095 14.2962 21.1641 14.5587C21.0698 14.6597 20.9709 14.7602 20.8662 14.8665C20.2095 15.5339 19.3921 16.3644 19.6002 17.6149C19.6668 18.0154 19.8129 18.3487 19.9418 18.6428C20.1631 19.1477 20.2715 19.4315 20.1211 19.8648C19.9957 20.2264 19.7369 20.4461 19.4093 20.7242C19.299 20.8178 19.185 20.9147 19.0688 21.023C18.5447 21.512 18.4307 22.0946 18.3391 22.5629C18.2736 22.8972 18.2172 23.1859 18.0318 23.4121C18.0022 23.4448 17.8934 23.5144 17.8216 23.5605C17.63 23.6831 17.4129 23.8222 17.2772 24.0464C17.1287 24.2918 17.0942 24.5822 17.0607 24.8631C17.0422 25.0191 17.019 25.2132 16.9792 25.2967C16.6112 26.0682 15.2249 27.2837 14.364 27.4236C13.8322 27.5096 13.5542 27.0767 13.0953 26.0068C13.0127 25.8141 12.9346 25.6321 12.8496 25.4588C12.6317 25.0139 12.4914 24.5269 12.3428 24.0113C12.2089 23.5467 12.0705 23.0661 11.8671 22.5994C11.7805 22.4007 11.6754 22.2085 11.5739 22.0226C11.2647 21.4567 11.087 21.087 11.2256 20.7233C11.2958 20.539 11.3859 20.3832 11.4814 20.2182C11.7133 19.8173 11.9763 19.3628 11.8671 18.602L11.8567 18.5295C11.7857 18.0314 11.6973 17.4117 11.4876 16.9363C11.3293 16.5773 11.0686 16.2958 10.8386 16.0474C10.5867 15.7754 10.3692 15.5404 10.3343 15.2804C10.3191 15.1671 10.331 15.0416 10.3448 14.8962C10.3688 14.6418 10.3987 14.3254 10.2831 13.9683C10.0987 13.3986 9.68806 12.9077 9.15641 12.6212C8.29759 12.1585 7.44058 12.3695 6.6845 12.5556C6.33981 12.6405 6.01422 12.7206 5.7126 12.7338C4.7863 12.7742 3.91168 12.5843 3.18277 12.1844C2.91537 12.0376 2.57941 12.1354 2.4326 12.403C2.28579 12.6705 2.38362 13.0063 2.65118 13.1532C3.55738 13.6505 4.63276 13.8869 5.76086 13.8378C6.17191 13.8199 6.56673 13.7227 6.94858 13.6287C7.5923 13.4702 8.14824 13.3334 8.63223 13.5941C8.91563 13.7468 9.13405 14.0072 9.23162 14.3086C9.277 14.4487 9.26264 14.6003 9.24448 14.7922C9.22692 14.9781 9.20699 15.1888 9.2389 15.427C9.32012 16.0343 9.69606 16.4403 10.0277 16.7983C10.2154 17.001 10.3927 17.1923 10.4763 17.3821C10.6246 17.7184 10.7043 18.2774 10.7625 18.6855L10.773 18.7589C10.8278 19.1408 10.7201 19.3269 10.5246 19.6648C10.4169 19.8511 10.2946 20.0623 10.1928 20.3297C9.86258 21.1959 10.2736 21.9482 10.6039 22.5525C10.6979 22.7247 10.7868 22.8874 10.8537 23.0409C11.0283 23.4415 11.1509 23.8669 11.2807 24.3173C11.4359 24.856 11.5964 25.4131 11.857 25.945C11.9297 26.0934 12.0024 26.2629 12.0795 26.4425C12.4438 27.2918 12.9797 28.5417 14.216 28.5415C14.3192 28.5415 14.4276 28.5328 14.5411 28.5143C15.7833 28.3125 17.4684 26.838 17.9765 25.7724C18.0947 25.5246 18.1283 25.2426 18.1579 24.9938C18.1723 24.873 18.1936 24.6941 18.2181 24.6289C18.2568 24.5939 18.3523 24.5329 18.4174 24.4911C18.5739 24.391 18.7513 24.2773 18.8849 24.1144C19.2481 23.6715 19.3413 23.1953 19.4234 22.7751C19.5083 22.3415 19.5729 22.064 19.8225 21.831C19.9197 21.7404 20.0191 21.656 20.1243 21.5666C20.5069 21.2418 20.9406 20.8736 21.1649 20.2271C21.4642 19.3645 21.1811 18.7184 20.9536 18.1992C20.8407 17.9416 20.734 17.6981 20.69 17.4336C20.5821 16.7851 20.982 16.3241 21.6536 15.6417C21.7585 15.5351 21.8671 15.4248 21.9711 15.3135C22.2049 15.0634 22.4469 14.8199 22.7032 14.5622C23.2186 14.0438 23.7516 13.5078 24.2051 12.92C24.5766 12.4391 24.8223 11.6955 24.5347 11.1183Z" fill="white"/>
</svg>
