<svg width="25" height="29" viewBox="0 0 25 29" fill="none" xmlns="http://www.w3.org/2000/svg">
<path d="M24.5347 10.8454C24.4155 10.6061 24.1055 10.2075 23.364 10.2075C23.3565 10.2075 23.3489 10.2076 23.3414 10.2077C22.3109 10.2183 21.868 10.1136 21.2724 9.4683C20.7362 8.88725 20.3853 8.0865 20.046 7.31204C19.9486 7.08953 19.8477 6.85946 19.7437 6.63712C19.6195 6.37188 19.5012 6.07716 19.3758 5.7651C19.0581 4.9744 18.7296 4.15687 18.2025 3.5211C17.7126 2.93027 17.0892 2.80792 16.5883 2.70953C16.3993 2.67243 16.2209 2.63743 16.0525 2.58199C15.7009 2.46632 15.3419 2.3289 14.9946 2.19595C14.8131 2.12644 14.6317 2.05703 14.45 1.9899C14.3276 1.94468 14.1897 1.94562 14.067 1.98995C14.0447 1.99807 13.9721 2.01783 13.919 2.0323C13.5247 2.13974 13.2537 2.22643 13.0876 2.44396C12.9275 2.65377 12.9193 2.86429 12.9555 3.0317C12.9534 3.03098 12.9513 3.03026 12.9493 3.02949C12.3525 2.81278 11.7396 2.44821 11.1468 2.09568C11.0096 2.01408 10.8703 1.93121 10.7301 1.84955C10.8369 1.5461 10.8334 1.22112 10.7106 0.912372C10.4964 0.373775 9.95512 0.0159438 9.33183 0.000870831C9.01993 -0.0073006 8.71654 0.0434948 8.42331 0.0920264C8.29438 0.113338 8.17264 0.133546 8.05857 0.147128C7.77208 0.18136 7.46311 0.201181 7.13603 0.222217C6.37653 0.27108 5.59113 0.321599 4.88668 0.559951C4.23854 0.77931 3.9881 1.24149 3.78679 1.61285C3.72517 1.72664 3.66693 1.83398 3.60001 1.93126C3.40356 2.21682 3.15008 2.48835 2.8817 2.77584C2.74598 2.92111 2.60563 3.07145 2.47346 3.22384C2.3468 3.36965 2.2123 3.51773 2.08217 3.6609C1.59453 4.19751 1.09033 4.75239 0.747793 5.4505C0.205497 6.55601 -0.0440078 7.63564 0.00634591 8.65944C0.0213085 8.96421 0.280475 9.19837 0.585358 9.18418C0.89013 9.16922 1.12506 8.90999 1.1101 8.60517C1.06907 7.77047 1.28098 6.87282 1.73996 5.93719C2.01348 5.37971 2.44408 4.90583 2.89997 4.40417C3.03425 4.25642 3.17316 4.10365 3.30799 3.94822C3.42714 3.81097 3.55457 3.67448 3.68945 3.52999C3.97363 3.2256 4.26747 2.91084 4.51052 2.55748C4.61062 2.41199 4.68907 2.26723 4.75831 2.13941C4.92825 1.82575 5.013 1.6838 5.24081 1.60672C5.80734 1.41491 6.51881 1.3692 7.20687 1.32492C7.53433 1.30383 7.873 1.28207 8.18943 1.24431C8.32839 1.22774 8.46836 1.2045 8.60374 1.18214C8.85755 1.14007 9.09734 1.10076 9.30505 1.10545C9.52352 1.11069 9.64571 1.22476 9.68386 1.32072C9.73626 1.4524 9.65024 1.57625 9.56885 1.65697C9.4444 1.78042 9.38599 1.95561 9.41128 2.12909C9.43662 2.30251 9.54285 2.45362 9.69739 2.53633C9.98554 2.69054 10.2752 2.86275 10.5818 3.04523C11.2187 3.42409 11.8772 3.81577 12.5721 4.06809C13.2593 4.31765 13.8824 4.11143 14.1225 3.55489C14.1934 3.39058 14.1931 3.23803 14.1663 3.11027C14.1822 3.1059 14.1968 3.10193 14.2096 3.09845C14.2194 3.09574 14.2291 3.09309 14.2387 3.0905C14.359 3.13583 14.4792 3.18182 14.5995 3.22787C14.9588 3.36551 15.3305 3.50779 15.7072 3.63164C15.9408 3.70849 16.1617 3.75189 16.3754 3.79385C16.8466 3.88639 17.1243 3.95203 17.3518 4.22638C17.7687 4.72909 18.0644 5.46507 18.3503 6.17698C18.4816 6.50367 18.6055 6.81237 18.7427 7.10538C18.8409 7.3154 18.9346 7.52913 19.0337 7.75545C19.4096 8.61328 19.7983 9.50043 20.4603 10.2177C21.4137 11.2507 22.2971 11.3248 23.3532 11.3126C23.481 11.3132 23.5347 11.3349 23.5475 11.342C23.578 11.4121 23.5429 11.6967 23.3305 11.9719C22.9194 12.5048 22.4112 13.0159 21.9198 13.5101C21.669 13.7623 21.4095 14.0233 21.1641 14.2858C21.0698 14.3867 20.9709 14.4872 20.8662 14.5936C20.2095 15.2609 19.3921 16.0914 19.6002 17.342C19.6668 17.7424 19.8129 18.0757 19.9418 18.3698C20.1631 18.8748 20.2715 19.1585 20.1211 19.5918C19.9957 19.9535 19.7369 20.1731 19.4093 20.4513C19.299 20.5448 19.185 20.6417 19.0688 20.7501C18.5447 21.2391 18.4307 21.8217 18.3391 22.2899C18.2736 22.6242 18.2172 22.913 18.0318 23.1391C18.0022 23.1719 17.8934 23.2415 17.8216 23.2875C17.63 23.4102 17.4129 23.5492 17.2772 23.7734C17.1287 24.0189 17.0942 24.3093 17.0607 24.5902C17.0422 24.7462 17.019 24.9403 16.9792 25.0238C16.6112 25.7953 15.2249 27.0107 14.364 27.1506C13.8322 27.2367 13.5542 26.8037 13.0953 25.7339C13.0127 25.5412 12.9346 25.3591 12.8496 25.1858C12.6317 24.741 12.4914 24.254 12.3428 23.7383C12.2089 23.2738 12.0705 22.7932 11.8671 22.3264C11.7805 22.1277 11.6754 21.9355 11.5739 21.7497C11.2647 21.1838 11.087 20.8141 11.2256 20.4504C11.2958 20.266 11.3859 20.1102 11.4814 19.9453C11.7133 19.5443 11.9763 19.0899 11.8671 18.3291L11.8567 18.2565C11.7857 17.7585 11.6973 17.1387 11.4876 16.6634C11.3293 16.3043 11.0686 16.0228 10.8386 15.7745C10.5867 15.5025 10.3692 15.2675 10.3343 15.0075C10.3191 14.8942 10.331 14.7686 10.3448 14.6232C10.3688 14.3689 10.3987 14.0525 10.2831 13.6954C10.0987 13.1256 9.68806 12.6347 9.15641 12.3483C8.29759 11.8856 7.44058 12.0966 6.6845 12.2826C6.33981 12.3676 6.01422 12.4477 5.7126 12.4609C4.7863 12.5012 3.91168 12.3114 3.18277 11.9114C2.91537 11.7647 2.57941 11.8625 2.4326 12.13C2.28579 12.3976 2.38362 12.7334 2.65118 12.8802C3.55738 13.3775 4.63276 13.6139 5.76086 13.5649C6.17191 13.5469 6.56673 13.4497 6.94858 13.3557C7.5923 13.1973 8.14824 13.0604 8.63223 13.3212C8.91563 13.4738 9.13405 13.7343 9.23162 14.0357C9.277 14.1758 9.26264 14.3274 9.24448 14.5193C9.22692 14.7051 9.20699 14.9158 9.2389 15.1541C9.32012 15.7614 9.69606 16.1673 10.0277 16.5254C10.2154 16.7281 10.3927 16.9194 10.4763 17.1091C10.6246 17.4454 10.7043 18.0044 10.7625 18.4125L10.773 18.486C10.8278 18.8679 10.7201 19.054 10.5246 19.3919C10.4169 19.5782 10.2946 19.7894 10.1928 20.0568C9.86258 20.9229 10.2736 21.6752 10.6039 22.2796C10.6979 22.4517 10.7868 22.6144 10.8537 22.7679C11.0283 23.1685 11.1509 23.594 11.2807 24.0443C11.4359 24.583 11.5964 25.1402 11.857 25.672C11.9297 25.8204 12.0024 25.99 12.0795 26.1696C12.4438 27.0188 12.9797 28.2687 14.216 28.2686C14.3192 28.2686 14.4276 28.2598 14.5411 28.2414C15.7833 28.0395 17.4684 26.565 17.9765 25.4995C18.0947 25.2516 18.1283 24.9697 18.1579 24.7208C18.1723 24.6 18.1936 24.4211 18.2181 24.356C18.2568 24.321 18.3523 24.2599 18.4174 24.2182C18.5739 24.118 18.7513 24.0043 18.8849 23.8414C19.2481 23.3985 19.3413 22.9223 19.4234 22.5022C19.5083 22.0685 19.5729 21.791 19.8225 21.5581C19.9197 21.4674 20.0191 21.383 20.1243 21.2937C20.5069 20.9689 20.9406 20.6007 21.1649 19.9541C21.4642 19.0915 21.1811 18.4454 20.9536 17.9263C20.8407 17.6686 20.734 17.4251 20.69 17.1607C20.5821 16.5122 20.982 16.0511 21.6536 15.3687C21.7585 15.2621 21.8671 15.1519 21.9711 15.0406C22.2049 14.7904 22.4469 14.547 22.7032 14.2893C23.2186 13.7709 23.7516 13.2348 24.2051 12.6471C24.5766 12.1662 24.8223 11.4226 24.5347 10.8454Z" fill="#292929"/>
</svg>
